P3
# Hello world in Piet hopefully
25 84
255
# 10 - \n
255 192 192 255 192 192 255 192 192 255 192 192 255 192 192 255 192 192 255 192 192 255 192 192 255 192 192 255 192 192 0 0 0 0 0 0 0 0 0 0 0 0 0 0 0 0 0 0 0 0 0 0 0 0 0 0 0 0 0 0 0 0 0 0 0 0 0 0 0 0 0 0 0 0 0
# 45 - -
255 0 0 255 0 0 255 0 0 255 0 0 255 0 0 255 0 0 255 0 0 255 0 0 255 0 0 255 0 0 255 0 0 255 0 0 255 0 0 255 0 0 255 0 0 255 0 0 255 0 0 255 0 0 255 0 0 255 0 0 255 0 0 255 0 0 255 0 0 255 0 0 255 0 0
255 0 0 255 0 0 255 0 0 255 0 0 255 0 0 255 0 0 255 0 0 255 0 0 255 0 0 255 0 0 255 0 0 255 0 0 255 0 0 255 0 0 255 0 0 255 0 0 255 0 0 255 0 0 255 0 0 255 0 0 0 0 0 0 0 0 0 0 0 0 0 0 0 0 0
# 45 - -
192 0 0 192 0 0 192 0 0 192 0 0 192 0 0 192 0 0 192 0 0 192 0 0 192 0 0 192 0 0 192 0 0 192 0 0 192 0 0 192 0 0 192 0 0 192 0 0 192 0 0 192 0 0 192 0 0 192 0 0 192 0 0 192 0 0 192 0 0 192 0 0 192 0 0
192 0 0 192 0 0 192 0 0 192 0 0 192 0 0 192 0 0 192 0 0 192 0 0 192 0 0 192 0 0 192 0 0 192 0 0 192 0 0 192 0 0 192 0 0 192 0 0 192 0 0 192 0 0 192 0 0 192 0 0 0 0 0 0 0 0 0 0 0 0 0 0 0 0 0
# 116 - t
255 192 192 255 192 192 255 192 192 255 192 192 255 192 192 255 192 192 255 192 192 255 192 192 255 192 192 255 192 192 255 192 192 255 192 192 255 192 192 255 192 192 255 192 192 255 192 192 255 192 192 255 192 192 255 192 192 255 192 192 255 192 192 255 192 192 255 192 192 255 192 192 255 192 192
255 192 192 255 192 192 255 192 192 255 192 192 255 192 192 255 192 192 255 192 192 255 192 192 255 192 192 255 192 192 255 192 192 255 192 192 255 192 192 255 192 192 255 192 192 255 192 192 255 192 192 255 192 192 255 192 192 255 192 192 255 192 192 255 192 192 255 192 192 255 192 192 255 192 192
255 192 192 255 192 192 255 192 192 255 192 192 255 192 192 255 192 192 255 192 192 255 192 192 255 192 192 255 192 192 255 192 192 255 192 192 255 192 192 255 192 192 255 192 192 255 192 192 255 192 192 255 192 192 255 192 192 255 192 192 255 192 192 255 192 192 255 192 192 255 192 192 255 192 192
255 192 192 255 192 192 255 192 192 255 192 192 255 192 192 255 192 192 255 192 192 255 192 192 255 192 192 255 192 192 255 192 192 255 192 192 255 192 192 255 192 192 255 192 192 255 192 192 255 192 192 255 192 192 255 192 192 255 192 192 255 192 192 255 192 192 255 192 192 255 192 192 255 192 192
255 192 192 255 192 192 255 192 192 255 192 192 255 192 192 255 192 192 255 192 192 255 192 192 255 192 192 255 192 192 255 192 192 255 192 192 255 192 192 255 192 192 255 192 192 255 192 192 0 0 0 0 0 0 0 0 0 0 0 0 0 0 0 0 0 0 0 0 0 0 0 0 0 0 0
# 101 - e
255 0 0 255 0 0 255 0 0 255 0 0 255 0 0 255 0 0 255 0 0 255 0 0 255 0 0 255 0 0 255 0 0 255 0 0 255 0 0 255 0 0 255 0 0 255 0 0 255 0 0 255 0 0 255 0 0 255 0 0 255 0 0 255 0 0 255 0 0 255 0 0 255 0 0
255 0 0 255 0 0 255 0 0 255 0 0 255 0 0 255 0 0 255 0 0 255 0 0 255 0 0 255 0 0 255 0 0 255 0 0 255 0 0 255 0 0 255 0 0 255 0 0 255 0 0 255 0 0 255 0 0 255 0 0 255 0 0 255 0 0 255 0 0 255 0 0 255 0 0
255 0 0 255 0 0 255 0 0 255 0 0 255 0 0 255 0 0 255 0 0 255 0 0 255 0 0 255 0 0 255 0 0 255 0 0 255 0 0 255 0 0 255 0 0 255 0 0 255 0 0 255 0 0 255 0 0 255 0 0 255 0 0 255 0 0 255 0 0 255 0 0 255 0 0
255 0 0 255 0 0 255 0 0 255 0 0 255 0 0 255 0 0 255 0 0 255 0 0 255 0 0 255 0 0 255 0 0 255 0 0 255 0 0 255 0 0 255 0 0 255 0 0 255 0 0 255 0 0 255 0 0 255 0 0 255 0 0 255 0 0 255 0 0 255 0 0 255 0 0
255 0 0 0 0 0 0 0 0 0 0 0 0 0 0 0 0 0 0 0 0 0 0 0 0 0 0 0 0 0 0 0 0 0 0 0 0 0 0 0 0 0 0 0 0 0 0 0 0 0 0 0 0 0 0 0 0 0 0 0 0 0 0 0 0 0 0 0 0 0 0 0 0 0 0
# 105 - i
192 0 0 192 0 0 192 0 0 192 0 0 192 0 0 192 0 0 192 0 0 192 0 0 192 0 0 192 0 0 192 0 0 192 0 0 192 0 0 192 0 0 192 0 0 192 0 0 192 0 0 192 0 0 192 0 0 192 0 0 192 0 0 192 0 0 192 0 0 192 0 0 192 0 0
192 0 0 192 0 0 192 0 0 192 0 0 192 0 0 192 0 0 192 0 0 192 0 0 192 0 0 192 0 0 192 0 0 192 0 0 192 0 0 192 0 0 192 0 0 192 0 0 192 0 0 192 0 0 192 0 0 192 0 0 192 0 0 192 0 0 192 0 0 192 0 0 192 0 0
192 0 0 192 0 0 192 0 0 192 0 0 192 0 0 192 0 0 192 0 0 192 0 0 192 0 0 192 0 0 192 0 0 192 0 0 192 0 0 192 0 0 192 0 0 192 0 0 192 0 0 192 0 0 192 0 0 192 0 0 192 0 0 192 0 0 192 0 0 192 0 0 192 0 0
192 0 0 192 0 0 192 0 0 192 0 0 192 0 0 192 0 0 192 0 0 192 0 0 192 0 0 192 0 0 192 0 0 192 0 0 192 0 0 192 0 0 192 0 0 192 0 0 192 0 0 192 0 0 192 0 0 192 0 0 192 0 0 192 0 0 192 0 0 192 0 0 192 0 0
192 0 0 192 0 0 192 0 0 192 0 0 192 0 0 0 0 0 0 0 0 0 0 0 0 0 0 0 0 0 0 0 0 0 0 0 0 0 0 0 0 0 0 0 0 0 0 0 0 0 0 0 0 0 0 0 0 0 0 0 0 0 0 0 0 0 0 0 0 0 0 0 0 0 0
# 80 - P
255 192 192 255 192 192 255 192 192 255 192 192 255 192 192 255 192 192 255 192 192 255 192 192 255 192 192 255 192 192 255 192 192 255 192 192 255 192 192 255 192 192 255 192 192 255 192 192 255 192 192 255 192 192 255 192 192 255 192 192 255 192 192 255 192 192 255 192 192 255 192 192 255 192 192
255 192 192 255 192 192 255 192 192 255 192 192 255 192 192 255 192 192 255 192 192 255 192 192 255 192 192 255 192 192 255 192 192 255 192 192 255 192 192 255 192 192 255 192 192 255 192 192 255 192 192 255 192 192 255 192 192 255 192 192 255 192 192 255 192 192 255 192 192 255 192 192 255 192 192
255 192 192 255 192 192 255 192 192 255 192 192 255 192 192 255 192 192 255 192 192 255 192 192 255 192 192 255 192 192 255 192 192 255 192 192 255 192 192 255 192 192 255 192 192 255 192 192 255 192 192 255 192 192 255 192 192 255 192 192 255 192 192 255 192 192 255 192 192 255 192 192 255 192 192
255 192 192 255 192 192 255 192 192 255 192 192 255 192 192 0 0 0 0 0 0 0 0 0 0 0 0 0 0 0 0 0 0 0 0 0 0 0 0 0 0 0 0 0 0 0 0 0 0 0 0 0 0 0 0 0 0 0 0 0 0 0 0 0 0 0 0 0 0 0 0 0 0 0 0
# 45 - -
255 0 0 255 0 0 255 0 0 255 0 0 255 0 0 255 0 0 255 0 0 255 0 0 255 0 0 255 0 0 255 0 0 255 0 0 255 0 0 255 0 0 255 0 0 255 0 0 255 0 0 255 0 0 255 0 0 255 0 0 255 0 0 255 0 0 255 0 0 255 0 0 255 0 0
255 0 0 255 0 0 255 0 0 255 0 0 255 0 0 255 0 0 255 0 0 255 0 0 255 0 0 255 0 0 255 0 0 255 0 0 255 0 0 255 0 0 255 0 0 255 0 0 255 0 0 255 0 0 255 0 0 255 0 0 0 0 0 0 0 0 0 0 0 0 0 0 0 0 0
# 45 - -
192 0 0 192 0 0 192 0 0 192 0 0 192 0 0 192 0 0 192 0 0 192 0 0 192 0 0 192 0 0 192 0 0 192 0 0 192 0 0 192 0 0 192 0 0 192 0 0 192 0 0 192 0 0 192 0 0 192 0 0 192 0 0 192 0 0 192 0 0 192 0 0 192 0 0
192 0 0 192 0 0 192 0 0 192 0 0 192 0 0 192 0 0 192 0 0 192 0 0 192 0 0 192 0 0 192 0 0 192 0 0 192 0 0 192 0 0 192 0 0 192 0 0 192 0 0 192 0 0 192 0 0 192 0 0 0 0 0 0 0 0 0 0 0 0 0 0 0 0 0
# 32 - ' '
255 192 192 255 192 192 255 192 192 255 192 192 255 192 192 255 192 192 255 192 192 255 192 192 255 192 192 255 192 192 255 192 192 255 192 192 255 192 192 255 192 192 255 192 192 255 192 192 255 192 192 255 192 192 255 192 192 255 192 192 255 192 192 255 192 192 255 192 192 255 192 192 255 192 192
255 192 192 255 192 192 255 192 192 255 192 192 255 192 192 255 192 192 255 192 192 0 0 0 0 0 0 0 0 0 0 0 0 0 0 0 0 0 0 0 0 0 0 0 0 0 0 0 0 0 0 0 0 0 0 0 0 0 0 0 0 0 0 0 0 0 0 0 0 0 0 0 0 0 0
# 33 - !
255 0 0 255 0 0 255 0 0 255 0 0 255 0 0 255 0 0 255 0 0 255 0 0 255 0 0 255 0 0 255 0 0 255 0 0 255 0 0 255 0 0 255 0 0 255 0 0 255 0 0 255 0 0 255 0 0 255 0 0 255 0 0 255 0 0 255 0 0 255 0 0 255 0 0
255 0 0 255 0 0 255 0 0 255 0 0 255 0 0 255 0 0 255 0 0 255 0 0 0 0 0 0 0 0 0 0 0 0 0 0 0 0 0 0 0 0 0 0 0 0 0 0 0 0 0 0 0 0 0 0 0 0 0 0 0 0 0 0 0 0 0 0 0 0 0 0 0 0 0
# 100 - d
192 0 0 192 0 0 192 0 0 192 0 0 192 0 0 192 0 0 192 0 0 192 0 0 192 0 0 192 0 0 192 0 0 192 0 0 192 0 0 192 0 0 192 0 0 192 0 0 192 0 0 192 0 0 192 0 0 192 0 0 192 0 0 192 0 0 192 0 0 192 0 0 192 0 0
192 0 0 192 0 0 192 0 0 192 0 0 192 0 0 192 0 0 192 0 0 192 0 0 192 0 0 192 0 0 192 0 0 192 0 0 192 0 0 192 0 0 192 0 0 192 0 0 192 0 0 192 0 0 192 0 0 192 0 0 192 0 0 192 0 0 192 0 0 192 0 0 192 0 0
192 0 0 192 0 0 192 0 0 192 0 0 192 0 0 192 0 0 192 0 0 192 0 0 192 0 0 192 0 0 192 0 0 192 0 0 192 0 0 192 0 0 192 0 0 192 0 0 192 0 0 192 0 0 192 0 0 192 0 0 192 0 0 192 0 0 192 0 0 192 0 0 192 0 0
192 0 0 192 0 0 192 0 0 192 0 0 192 0 0 192 0 0 192 0 0 192 0 0 192 0 0 192 0 0 192 0 0 192 0 0 192 0 0 192 0 0 192 0 0 192 0 0 192 0 0 192 0 0 192 0 0 192 0 0 192 0 0 192 0 0 192 0 0 192 0 0 192 0 0
# 108 - l
255 192 192 255 192 192 255 192 192 255 192 192 255 192 192 255 192 192 255 192 192 255 192 192 255 192 192 255 192 192 255 192 192 255 192 192 255 192 192 255 192 192 255 192 192 255 192 192 255 192 192 255 192 192 255 192 192 255 192 192 255 192 192 255 192 192 255 192 192 255 192 192 255 192 192
255 192 192 255 192 192 255 192 192 255 192 192 255 192 192 255 192 192 255 192 192 255 192 192 255 192 192 255 192 192 255 192 192 255 192 192 255 192 192 255 192 192 255 192 192 255 192 192 255 192 192 255 192 192 255 192 192 255 192 192 255 192 192 255 192 192 255 192 192 255 192 192 255 192 192
255 192 192 255 192 192 255 192 192 255 192 192 255 192 192 255 192 192 255 192 192 255 192 192 255 192 192 255 192 192 255 192 192 255 192 192 255 192 192 255 192 192 255 192 192 255 192 192 255 192 192 255 192 192 255 192 192 255 192 192 255 192 192 255 192 192 255 192 192 255 192 192 255 192 192
255 192 192 255 192 192 255 192 192 255 192 192 255 192 192 255 192 192 255 192 192 255 192 192 255 192 192 255 192 192 255 192 192 255 192 192 255 192 192 255 192 192 255 192 192 255 192 192 255 192 192 255 192 192 255 192 192 255 192 192 255 192 192 255 192 192 255 192 192 255 192 192 255 192 192
255 192 192 255 192 192 255 192 192 255 192 192 255 192 192 255 192 192 255 192 192 255 192 192 0 0 0 0 0 0 0 0 0 0 0 0 0 0 0 0 0 0 0 0 0 0 0 0 0 0 0 0 0 0 0 0 0 0 0 0 0 0 0 0 0 0 0 0 0 0 0 0 0 0 0
# 114 - r
255 0 0 255 0 0 255 0 0 255 0 0 255 0 0 255 0 0 255 0 0 255 0 0 255 0 0 255 0 0 255 0 0 255 0 0 255 0 0 255 0 0 255 0 0 255 0 0 255 0 0 255 0 0 255 0 0 255 0 0 255 0 0 255 0 0 255 0 0 255 0 0 255 0 0
255 0 0 255 0 0 255 0 0 255 0 0 255 0 0 255 0 0 255 0 0 255 0 0 255 0 0 255 0 0 255 0 0 255 0 0 255 0 0 255 0 0 255 0 0 255 0 0 255 0 0 255 0 0 255 0 0 255 0 0 255 0 0 255 0 0 255 0 0 255 0 0 255 0 0
255 0 0 255 0 0 255 0 0 255 0 0 255 0 0 255 0 0 255 0 0 255 0 0 255 0 0 255 0 0 255 0 0 255 0 0 255 0 0 255 0 0 255 0 0 255 0 0 255 0 0 255 0 0 255 0 0 255 0 0 255 0 0 255 0 0 255 0 0 255 0 0 255 0 0
255 0 0 255 0 0 255 0 0 255 0 0 255 0 0 255 0 0 255 0 0 255 0 0 255 0 0 255 0 0 255 0 0 255 0 0 255 0 0 255 0 0 255 0 0 255 0 0 255 0 0 255 0 0 255 0 0 255 0 0 255 0 0 255 0 0 255 0 0 255 0 0 255 0 0
255 0 0 255 0 0 255 0 0 255 0 0 255 0 0 255 0 0 255 0 0 255 0 0 255 0 0 255 0 0 255 0 0 255 0 0 255 0 0 255 0 0 0 0 0 0 0 0 0 0 0 0 0 0 0 0 0 0 0 0 0 0 0 0 0 0 0 0 0 0 0 0 0 0 0
# 111 - o
192 0 0 192 0 0 192 0 0 192 0 0 192 0 0 192 0 0 192 0 0 192 0 0 192 0 0 192 0 0 192 0 0 192 0 0 192 0 0 192 0 0 192 0 0 192 0 0 192 0 0 192 0 0 192 0 0 192 0 0 192 0 0 192 0 0 192 0 0 192 0 0 192 0 0
192 0 0 192 0 0 192 0 0 192 0 0 192 0 0 192 0 0 192 0 0 192 0 0 192 0 0 192 0 0 192 0 0 192 0 0 192 0 0 192 0 0 192 0 0 192 0 0 192 0 0 192 0 0 192 0 0 192 0 0 192 0 0 192 0 0 192 0 0 192 0 0 192 0 0
192 0 0 192 0 0 192 0 0 192 0 0 192 0 0 192 0 0 192 0 0 192 0 0 192 0 0 192 0 0 192 0 0 192 0 0 192 0 0 192 0 0 192 0 0 192 0 0 192 0 0 192 0 0 192 0 0 192 0 0 192 0 0 192 0 0 192 0 0 192 0 0 192 0 0
192 0 0 192 0 0 192 0 0 192 0 0 192 0 0 192 0 0 192 0 0 192 0 0 192 0 0 192 0 0 192 0 0 192 0 0 192 0 0 192 0 0 192 0 0 192 0 0 192 0 0 192 0 0 192 0 0 192 0 0 192 0 0 192 0 0 192 0 0 192 0 0 192 0 0
192 0 0 192 0 0 192 0 0 192 0 0 192 0 0 192 0 0 192 0 0 192 0 0 192 0 0 192 0 0 192 0 0 0 0 0 0 0 0 0 0 0 0 0 0 0 0 0 0 0 0 0 0 0 0 0 0 0 0 0 0 0 0 0 0 0 0 0 0 0 0 0 0 0 0
# 119 - w
255 192 192 255 192 192 255 192 192 255 192 192 255 192 192 255 192 192 255 192 192 255 192 192 255 192 192 255 192 192 255 192 192 255 192 192 255 192 192 255 192 192 255 192 192 255 192 192 255 192 192 255 192 192 255 192 192 255 192 192 255 192 192 255 192 192 255 192 192 255 192 192 255 192 192
255 192 192 255 192 192 255 192 192 255 192 192 255 192 192 255 192 192 255 192 192 255 192 192 255 192 192 255 192 192 255 192 192 255 192 192 255 192 192 255 192 192 255 192 192 255 192 192 255 192 192 255 192 192 255 192 192 255 192 192 255 192 192 255 192 192 255 192 192 255 192 192 255 192 192
255 192 192 255 192 192 255 192 192 255 192 192 255 192 192 255 192 192 255 192 192 255 192 192 255 192 192 255 192 192 255 192 192 255 192 192 255 192 192 255 192 192 255 192 192 255 192 192 255 192 192 255 192 192 255 192 192 255 192 192 255 192 192 255 192 192 255 192 192 255 192 192 255 192 192
255 192 192 255 192 192 255 192 192 255 192 192 255 192 192 255 192 192 255 192 192 255 192 192 255 192 192 255 192 192 255 192 192 255 192 192 255 192 192 255 192 192 255 192 192 255 192 192 255 192 192 255 192 192 255 192 192 255 192 192 255 192 192 255 192 192 255 192 192 255 192 192 255 192 192
255 192 192 255 192 192 255 192 192 255 192 192 255 192 192 255 192 192 255 192 192 255 192 192 255 192 192 255 192 192 255 192 192 255 192 192 255 192 192 255 192 192 255 192 192 255 192 192 255 192 192 255 192 192 255 192 192 0 0 0 0 0 0 0 0 0 0 0 0 0 0 0 0 0 0
# 32 - ' '
255 0 0 255 0 0 255 0 0 255 0 0 255 0 0 255 0 0 255 0 0 255 0 0 255 0 0 255 0 0 255 0 0 255 0 0 255 0 0 255 0 0 255 0 0 255 0 0 255 0 0 255 0 0 255 0 0 255 0 0 255 0 0 255 0 0 255 0 0 255 0 0 255 0 0
255 0 0 255 0 0 255 0 0 255 0 0 255 0 0 255 0 0 255 0 0 0 0 0 0 0 0 0 0 0 0 0 0 0 0 0 0 0 0 0 0 0 0 0 0 0 0 0 0 0 0 0 0 0 0 0 0 0 0 0 0 0 0 0 0 0 0 0 0 0 0 0 0 0 0
# 111 - o
192 0 0 192 0 0 192 0 0 192 0 0 192 0 0 192 0 0 192 0 0 192 0 0 192 0 0 192 0 0 192 0 0 192 0 0 192 0 0 192 0 0 192 0 0 192 0 0 192 0 0 192 0 0 192 0 0 192 0 0 192 0 0 192 0 0 192 0 0 192 0 0 192 0 0
192 0 0 192 0 0 192 0 0 192 0 0 192 0 0 192 0 0 192 0 0 192 0 0 192 0 0 192 0 0 192 0 0 192 0 0 192 0 0 192 0 0 192 0 0 192 0 0 192 0 0 192 0 0 192 0 0 192 0 0 192 0 0 192 0 0 192 0 0 192 0 0 192 0 0
192 0 0 192 0 0 192 0 0 192 0 0 192 0 0 192 0 0 192 0 0 192 0 0 192 0 0 192 0 0 192 0 0 192 0 0 192 0 0 192 0 0 192 0 0 192 0 0 192 0 0 192 0 0 192 0 0 192 0 0 192 0 0 192 0 0 192 0 0 192 0 0 192 0 0
192 0 0 192 0 0 192 0 0 192 0 0 192 0 0 192 0 0 192 0 0 192 0 0 192 0 0 192 0 0 192 0 0 192 0 0 192 0 0 192 0 0 192 0 0 192 0 0 192 0 0 192 0 0 192 0 0 192 0 0 192 0 0 192 0 0 192 0 0 192 0 0 192 0 0
192 0 0 192 0 0 192 0 0 192 0 0 192 0 0 192 0 0 192 0 0 192 0 0 192 0 0 192 0 0 192 0 0 0 0 0 0 0 0 0 0 0 0 0 0 0 0 0 0 0 0 0 0 0 0 0 0 0 0 0 0 0 0 0 0 0 0 0 0 0 0 0 0 0 0
# 108 - l
255 192 192 255 192 192 255 192 192 255 192 192 255 192 192 255 192 192 255 192 192 255 192 192 255 192 192 255 192 192 255 192 192 255 192 192 255 192 192 255 192 192 255 192 192 255 192 192 255 192 192 255 192 192 255 192 192 255 192 192 255 192 192 255 192 192 255 192 192 255 192 192 255 192 192
255 192 192 255 192 192 255 192 192 255 192 192 255 192 192 255 192 192 255 192 192 255 192 192 255 192 192 255 192 192 255 192 192 255 192 192 255 192 192 255 192 192 255 192 192 255 192 192 255 192 192 255 192 192 255 192 192 255 192 192 255 192 192 255 192 192 255 192 192 255 192 192 255 192 192
255 192 192 255 192 192 255 192 192 255 192 192 255 192 192 255 192 192 255 192 192 255 192 192 255 192 192 255 192 192 255 192 192 255 192 192 255 192 192 255 192 192 255 192 192 255 192 192 255 192 192 255 192 192 255 192 192 255 192 192 255 192 192 255 192 192 255 192 192 255 192 192 255 192 192
255 192 192 255 192 192 255 192 192 255 192 192 255 192 192 255 192 192 255 192 192 255 192 192 255 192 192 255 192 192 255 192 192 255 192 192 255 192 192 255 192 192 255 192 192 255 192 192 255 192 192 255 192 192 255 192 192 255 192 192 255 192 192 255 192 192 255 192 192 255 192 192 255 192 192
255 192 192 255 192 192 255 192 192 255 192 192 255 192 192 255 192 192 255 192 192 255 192 192 0 0 0 0 0 0 0 0 0 0 0 0 0 0 0 0 0 0 0 0 0 0 0 0 0 0 0 0 0 0 0 0 0 0 0 0 0 0 0 0 0 0 0 0 0 0 0 0 0 0 0
# 108 - l
255 0 0 255 0 0 255 0 0 255 0 0 255 0 0 255 0 0 255 0 0 255 0 0 255 0 0 255 0 0 255 0 0 255 0 0 255 0 0 255 0 0 255 0 0 255 0 0 255 0 0 255 0 0 255 0 0 255 0 0 255 0 0 255 0 0 255 0 0 255 0 0 255 0 0
255 0 0 255 0 0 255 0 0 255 0 0 255 0 0 255 0 0 255 0 0 255 0 0 255 0 0 255 0 0 255 0 0 255 0 0 255 0 0 255 0 0 255 0 0 255 0 0 255 0 0 255 0 0 255 0 0 255 0 0 255 0 0 255 0 0 255 0 0 255 0 0 255 0 0
255 0 0 255 0 0 255 0 0 255 0 0 255 0 0 255 0 0 255 0 0 255 0 0 255 0 0 255 0 0 255 0 0 255 0 0 255 0 0 255 0 0 255 0 0 255 0 0 255 0 0 255 0 0 255 0 0 255 0 0 255 0 0 255 0 0 255 0 0 255 0 0 255 0 0
255 0 0 255 0 0 255 0 0 255 0 0 255 0 0 255 0 0 255 0 0 255 0 0 255 0 0 255 0 0 255 0 0 255 0 0 255 0 0 255 0 0 255 0 0 255 0 0 255 0 0 255 0 0 255 0 0 255 0 0 255 0 0 255 0 0 255 0 0 255 0 0 255 0 0
255 0 0 255 0 0 255 0 0 255 0 0 255 0 0 255 0 0 255 0 0 255 0 0 0 0 0 0 0 0 0 0 0 0 0 0 0 0 0 0 0 0 0 0 0 0 0 0 0 0 0 0 0 0 0 0 0 0 0 0 0 0 0 0 0 0 0 0 0 0 0 0 0 0 0
# 101 - e
192 0 0 192 0 0 192 0 0 192 0 0 192 0 0 192 0 0 192 0 0 192 0 0 192 0 0 192 0 0 192 0 0 192 0 0 192 0 0 192 0 0 192 0 0 192 0 0 192 0 0 192 0 0 192 0 0 192 0 0 192 0 0 192 0 0 192 0 0 192 0 0 192 0 0
192 0 0 192 0 0 192 0 0 192 0 0 192 0 0 192 0 0 192 0 0 192 0 0 192 0 0 192 0 0 192 0 0 192 0 0 192 0 0 192 0 0 192 0 0 192 0 0 192 0 0 192 0 0 192 0 0 192 0 0 192 0 0 192 0 0 192 0 0 192 0 0 192 0 0
192 0 0 192 0 0 192 0 0 192 0 0 192 0 0 192 0 0 192 0 0 192 0 0 192 0 0 192 0 0 192 0 0 192 0 0 192 0 0 192 0 0 192 0 0 192 0 0 192 0 0 192 0 0 192 0 0 192 0 0 192 0 0 192 0 0 192 0 0 192 0 0 192 0 0
192 0 0 192 0 0 192 0 0 192 0 0 192 0 0 192 0 0 192 0 0 192 0 0 192 0 0 192 0 0 192 0 0 192 0 0 192 0 0 192 0 0 192 0 0 192 0 0 192 0 0 192 0 0 192 0 0 192 0 0 192 0 0 192 0 0 192 0 0 192 0 0 192 0 0
192 0 0 0 0 0 0 0 0 0 0 0 0 0 0 0 0 0 0 0 0 0 0 0 0 0 0 0 0 0 0 0 0 0 0 0 0 0 0 0 0 0 0 0 0 0 0 0 0 0 0 0 0 0 0 0 0 0 0 0 0 0 0 0 0 0 0 0 0 0 0 0 0 0 0
# 72 - H
255 192 192 255 192 192 255 192 192 255 192 192 255 192 192 255 192 192 255 192 192 255 192 192 255 192 192 255 192 192 255 192 192 255 192 192 255 192 192 255 192 192 255 192 192 255 192 192 255 192 192 255 192 192 255 192 192 255 192 192 255 192 192 255 192 192 255 192 192 255 192 192 255 192 192
255 192 192 255 192 192 255 192 192 255 192 192 255 192 192 255 192 192 255 192 192 255 192 192 255 192 192 255 192 192 255 192 192 255 192 192 255 192 192 255 192 192 255 192 192 255 192 192 255 192 192 255 192 192 255 192 192 255 192 192 255 192 192 255 192 192 255 192 192 255 192 192 255 192 192
255 192 192 255 192 192 255 192 192 255 192 192 255 192 192 255 192 192 255 192 192 255 192 192 255 192 192 255 192 192 255 192 192 255 192 192 255 192 192 255 192 192 255 192 192 255 192 192 255 192 192 255 192 192 255 192 192 255 192 192 255 192 192 255 192 192 0 0 0 0 0 0 0 0 0
# push
255 0 0 0 0 0 0 0 0 0 0 0 0 0 0 0 0 0 0 0 0 0 0 0 0 0 0 0 0 0 0 0 0 0 0 0 0 0 0 0 0 0 0 0 0 0 0 0 0 0 0 0 0 0 0 0 0 0 0 0 0 0 0 0 0 0 0 0 0 0 0 0 0 0 0
# print
255 192 255 0 0 192 0 0 0 0 0 0 0 0 0 0 0 0 0 0 0 0 0 0 0 0 0 0 0 0 0 0 0 0 0 0 0 0 0 0 0 0 0 0 0 0 0 0 0 0 0 0 0 0 0 0 0 0 0 0 192 255 192 192 255 192 0 0 0 0 0 0 0 0 0
0 0 192 0 0 192 0 255 255 192 255 192 192 192 0 255 0 0 255 192 255 0 0 192 0 255 255 192 255 192 192 192 0 255 0 0 255 192 255 0 0 192 0 255 255 192 255 192 192 192 0 255 0 0 255 192 255 0 0 192 0 255 255 192 255 192 0 0 0 0 0 0 0 0 0